<svg width="40" height="40" viewBox="0 0 40 40" fill="none" xmlns="http://www.w3.org/2000/svg">
<path d="M20 4.16666C15.8007 4.16666 11.7735 5.83481 8.80413 8.80414C5.83481 11.7735 4.16666 15.8007 4.16666 20C4.16666 24.1993 5.83481 28.2265 8.80413 31.1959C11.7735 34.1652 15.8007 35.8333 20 35.8333C24.1993 35.8333 28.2265 34.1652 31.1958 31.1959C34.1652 28.2265 35.8333 24.1993 35.8333 20C35.8333 15.8007 34.1652 11.7735 31.1958 8.80414C28.2265 5.83481 24.1993 4.16666 20 4.16666Z" fill="#039BE5"/>
<path d="M22.1433 24.1967H26.2408L26.8842 20.0342H22.1425V17.7592C22.1425 16.03 22.7075 14.4967 24.325 14.4967H26.9242V10.8642C26.4675 10.8025 25.5017 10.6675 23.6767 10.6675C19.8658 10.6675 17.6317 12.68 17.6317 17.265V20.0342H13.7142V24.1967H17.6317V35.6375C18.4075 35.7542 19.1933 35.8333 20 35.8333C20.7292 35.8333 21.4408 35.7667 22.1433 35.6717V24.1967Z" fill="white"/>
</svg>
